<svg width="35.321777" height="58.008179" viewBox="0 0 35.3218 58.0082" fill="none" xmlns="http://www.w3.org/2000/svg" xmlns:xlink="http://www.w3.org/1999/xlink">
	<desc>
			Created with Pixso.
	</desc>
	<defs/>
	<rect id="Good_comments_first" width="20.000000" height="54.000000" transform="translate(2.000000 2.008179)" fill="#FFFFFF" fill-opacity="0"/>
	<path id="Форма 21" d="M2 56L2 31" stroke="#FFFFFF" stroke-opacity="1.000000" stroke-width="4.000000" stroke-linecap="round"/>
	<path id="Форма 20" d="M12 56L12 21" stroke="#FFFFFF" stroke-opacity="1.000000" stroke-width="4.000000" stroke-linecap="round"/>
	<path id="Форма 19" d="M24 6.83L31.89 14.73C32.69 15.52 33.93 15.52 34.72 14.73C35.51 13.94 35.51 12.69 34.72 11.9L23.41 0.59C22.62 -0.2 21.37 -0.2 20.58 0.59L9.27 11.9C8.48 12.69 8.48 13.94 9.27 14.73C10.06 15.52 11.3 15.52 12.1 14.73L20 6.83L20 56C20 57.12 20.87 58 22 58C23.12 58 24 57.12 24 56L24 6.83Z" fill="#FFFFFF" fill-opacity="1.000000" fill-rule="evenodd"/>
</svg>
