<svg width="60.000000" height="64.729736" viewBox="0 0 60 64.7297" fill="none" xmlns="http://www.w3.org/2000/svg" xmlns:xlink="http://www.w3.org/1999/xlink">
	<desc>
			Created with Pixso.
	</desc>
	<defs/>
	<rect id="User" width="60.000000" height="60.000000" fill="#FFFFFF" fill-opacity="0"/>
	<path id="Убрать верхний слой" d="M4.86475 50.3662C4.86475 36.2822 16.0576 27.5676 29.8647 27.5676C43.6719 27.5676 54.8647 36.2822 54.8647 50.3662C54.8647 64.4502 43.6719 64.7297 29.8647 64.7297C16.0576 64.7297 4.86475 64.4502 4.86475 50.3662ZM29.8647 32.973C25.1206 32.973 21.0857 34.059 17.76 36.2309C17.0535 36.6923 16.3792 37.2027 15.7366 37.762C14.3306 38.9862 13.1958 40.3634 12.3323 41.8937C10.9575 44.33 10.2703 47.1541 10.2703 50.3662C10.2703 53.2563 10.9905 55.3683 12.4314 56.702C12.937 57.17 13.5312 57.5423 14.2144 57.8186C16.6956 58.8224 21.9124 59.3243 29.8647 59.3243C37.8171 59.3243 43.0339 58.8224 45.5151 57.8186C46.1982 57.5423 46.7925 57.17 47.2981 56.702C48.739 55.3683 49.4592 53.2563 49.4592 50.3662C49.4592 47.1541 48.772 44.33 47.3972 41.8937C46.5337 40.3634 45.3989 38.9862 43.9929 37.762C43.3506 37.2027 42.676 36.6924 41.9697 36.231L41.9695 36.2309C38.6438 34.059 34.6089 32.973 29.8647 32.973Z" clip-rule="evenodd" fill="#000000" fill-opacity="1.000000" fill-rule="evenodd"/>
	<ellipse id="Эллипс 5" cx="29.864746" cy="12.837830" rx="10.810811" ry="10.810810" stroke="#000000" stroke-opacity="1.000000" stroke-width="4.054054"/>
</svg>
